<svg width="26" height="32" viewBox="0 0 26 32" xmlns="http://www.w3.org/2000/svg">
<g clip-path="url(#clip0_90_810)">
<path fill-rule="evenodd" clip-rule="evenodd" d="M0.299805 0.300049H0.999805H24.9998H25.6998V1.00005V31.0001V31.7001H24.9998H0.999805H0.299805V31.0001V1.00005V0.300049ZM1.6998 1.70005V8.30005H8.2998V1.70005H1.6998ZM9.6998 1.70005V8.30005H24.2998V1.70005H9.6998ZM1.6998 30.3001V9.70005H24.2998V30.3001H1.6998ZM13.4998 12.7C9.74427 12.7 6.6998 15.7445 6.6998 19.5C6.6998 23.2556 9.74427 26.3 13.4998 26.3C17.2553 26.3 20.2998 23.2556 20.2998 19.5C20.2998 15.7445 17.2553 12.7 13.4998 12.7ZM5.2998 19.5C5.2998 14.9713 8.97107 11.3 13.4998 11.3C18.0285 11.3 21.6998 14.9713 21.6998 19.5C21.6998 24.0288 18.0285 27.7 13.4998 27.7C8.97107 27.7 5.2998 24.0288 5.2998 19.5ZM13.5308 14.3C10.678 14.3 8.2998 16.5706 8.2998 19.5C8.2998 22.4224 10.6 24.7 13.5308 24.7C15.1697 24.7 16.5605 23.9633 17.5297 22.8402L17.9363 22.3692L17.5162 21.9102C16.9393 21.28 16.6379 20.4702 16.6379 19.5C16.6379 18.594 16.9429 17.7161 17.5162 17.0899L17.9363 16.6309L17.5297 16.1599C16.5605 15.0368 15.1697 14.3 13.5308 14.3ZM9.6998 19.5C9.6998 17.367 11.4278 15.7 13.5308 15.7C14.5198 15.7 15.3874 16.0636 16.0711 16.6698C15.5088 17.5075 15.2379 18.5132 15.2379 19.5C15.2379 20.5473 15.5101 21.5136 16.0687 22.3324C15.3854 22.9374 14.5187 23.3 13.5308 23.3C11.3642 23.3 9.6998 21.6402 9.6998 19.5ZM20.9998 4.70005C20.8341 4.70005 20.6998 4.83436 20.6998 5.00005C20.6998 5.16573 20.8341 5.30005 20.9998 5.30005C21.1655 5.30005 21.2998 5.16573 21.2998 5.00005C21.2998 4.83436 21.1655 4.70005 20.9998 4.70005ZM19.2998 5.00005C19.2998 4.06116 20.0609 3.30005 20.9998 3.30005C21.9387 3.30005 22.6998 4.06117 22.6998 5.00005C22.6998 5.93893 21.9387 6.70005 20.9998 6.70005C20.0609 6.70005 19.2998 5.93893 19.2998 5.00005ZM15.6998 5.00005C15.6998 4.83436 15.8341 4.70005 15.9998 4.70005C16.1655 4.70005 16.2998 4.83436 16.2998 5.00005C16.2998 5.16573 16.1655 5.30005 15.9998 5.30005C15.8341 5.30005 15.6998 5.16573 15.6998 5.00005ZM15.9998 3.30005C15.0609 3.30005 14.2998 4.06116 14.2998 5.00005C14.2998 5.93893 15.0609 6.70005 15.9998 6.70005C16.9387 6.70005 17.6998 5.93893 17.6998 5.00005C17.6998 4.06117 16.9387 3.30005 15.9998 3.30005Z"/>
</g>
<defs>
<clipPath id="clip0_90_810">
<rect width="26" height="32"/>
</clipPath>
</defs>
</svg>
