<svg width="30" height="30" viewBox="0 0 30 30" xmlns="http://www.w3.org/2000/svg">
<path fill-rule="evenodd" clip-rule="evenodd" d="M1.61406 0.914551H0.914062V1.61455V5.65217V20.3105V24.3481V25.0481H1.61406H4.95166V28.3857V29.0857H5.65166H28.3852H29.0852V28.3857V24.3481V9.68977V5.65215V4.95215H28.3852H25.0476V1.61455V0.914551H24.3476H20.31H5.65168H1.61406ZM25.0476 6.35215V20.3105V24.3481V25.0481H24.3476H9.6893H8.9893V24.3481V20.3105V13.7274V9.68979V8.98979H9.6893H13.7269H19.61V6.35215H6.35166V20.3105V24.3481V27.6857H27.6852V24.3481V9.68977V6.35215H25.0476ZM19.61 10.3898H13.7269H10.3893V13.7274V19.6105H19.61V10.3898ZM10.3893 21.0105V23.6481H23.6476V20.3105V5.65217V2.31455H20.31H5.65168H2.31406V5.65217V20.3105V23.6481H4.95166V20.3105V5.65215V4.95215H5.65166H20.31H21.01V5.65215V20.3105V21.0105H20.31H10.3893Z"/>
</svg>
