<svg width="26" height="32" viewBox="0 0 26 32" xmlns="http://www.w3.org/2000/svg">
<g clip-path="url(#clip0_90_798)">
<path fill-rule="evenodd" clip-rule="evenodd" d="M0.999805 0.300049H0.299805V1.00005V31V31.7H0.999805H4.0398H4.7398V31V28.9632H21.2598V31V31.7H21.9598H24.9998H25.6998V31V1.00005V0.300049H24.9998H0.999805ZM1.6998 3.59741V1.70005H24.2998V3.59741H1.6998ZM1.6998 4.99741V11.6417H24.2998V4.99741H1.6998ZM1.6998 19.3V13.0417H24.2998V19.3H1.6998ZM1.6998 20.7001V30.3H3.3398V28.2632V27.5632H4.0398H21.9598H22.6598V28.2632V30.3H24.2998V20.7001H1.6998ZM6.01412 8.03452C5.85671 8.03452 5.7291 8.16213 5.7291 8.31954C5.7291 8.47695 5.85671 8.60455 6.01412 8.60455C6.17153 8.60455 6.29913 8.47695 6.29913 8.31954C6.29913 8.16213 6.17153 8.03452 6.01412 8.03452ZM4.3291 8.31954C4.3291 7.38893 5.08351 6.63452 6.01412 6.63452C6.94473 6.63452 7.69913 7.38893 7.69913 8.31954C7.69913 9.25015 6.94473 10.0046 6.01412 10.0046C5.08351 10.0046 4.3291 9.25014 4.3291 8.31954ZM19.4073 8.31954C19.4073 8.16213 19.5349 8.03452 19.6923 8.03452C19.8498 8.03452 19.9774 8.16213 19.9774 8.31954C19.9774 8.47695 19.8498 8.60455 19.6923 8.60455C19.5349 8.60455 19.4073 8.47695 19.4073 8.31954ZM19.6923 6.63452C18.7617 6.63452 18.0073 7.38893 18.0073 8.31954C18.0073 9.25014 18.7617 10.0046 19.6923 10.0046C20.6229 10.0046 21.3774 9.25015 21.3774 8.31954C21.3774 7.38893 20.6229 6.63452 19.6923 6.63452ZM6.01412 16.079C5.85671 16.079 5.7291 16.2066 5.7291 16.364C5.7291 16.5214 5.85671 16.649 6.01412 16.649C6.17153 16.649 6.29913 16.5214 6.29913 16.364C6.29913 16.2066 6.17153 16.079 6.01412 16.079ZM4.3291 16.364C4.3291 15.4334 5.08351 14.679 6.01412 14.679C6.94473 14.679 7.69913 15.4334 7.69913 16.364C7.69913 17.2946 6.94473 18.049 6.01412 18.049C5.08351 18.049 4.3291 17.2946 4.3291 16.364ZM19.4073 16.364C19.4073 16.2066 19.5349 16.079 19.6923 16.079C19.8498 16.079 19.9774 16.2066 19.9774 16.364C19.9774 16.5214 19.8498 16.649 19.6923 16.649C19.5349 16.649 19.4073 16.5214 19.4073 16.364ZM19.6923 14.679C18.7617 14.679 18.0073 15.4334 18.0073 16.364C18.0073 17.2946 18.7617 18.049 19.6923 18.049C20.6229 18.049 21.3774 17.2946 21.3774 16.364C21.3774 15.4334 20.6229 14.679 19.6923 14.679Z"/>
</g>
<defs>
<clipPath id="clip0_90_798">
<rect width="26" height="32" fill="white"/>
</clipPath>
</defs>
</svg>
