<svg width="28" height="32" viewBox="0 0 28 32" xmlns="http://www.w3.org/2000/svg">
<g clip-path="url(#clip0_90_819)">
<path fill-rule="evenodd" clip-rule="evenodd" d="M3.55338 0.300049C2.58107 0.300049 1.91339 1.06617 1.7905 1.90531H0.999805H0.299805V2.60531V7.23689V7.93689H0.999805H1.77004V24.0632H0.999805H0.299805V24.7632V29.3948V30.0948H0.999805H1.7905C1.9134 30.9339 2.58107 31.7001 3.55338 31.7001H6.02957C7.00188 31.7001 7.66955 30.9339 7.79244 30.0948H7.98098C8.10387 30.9339 8.77154 31.7001 9.74385 31.7001H12.0653C13.0376 31.7001 13.7053 30.9339 13.8282 30.0948H14.0167C14.1396 30.9339 14.8073 31.7001 15.7796 31.7001H18.2558C19.2281 31.7001 19.8957 30.9339 20.0186 30.0948H20.2072C20.3301 30.9339 20.9977 31.7001 21.97 31.7001H24.4462C25.4185 31.7001 26.0862 30.9339 26.2091 30.0948H26.9998H27.6998V29.3948V24.7632V24.0632H26.9998H26.2296V7.93689H26.845H27.545V7.23689V2.60531V1.90531H26.845H26.0543C25.9315 1.06617 25.2638 0.300049 24.2915 0.300049H21.8153C20.843 0.300049 20.1753 1.06617 20.0524 1.90531H19.8639C19.741 1.06617 19.0733 0.300049 18.101 0.300049H15.6248C14.6525 0.300049 13.9848 1.06617 13.8619 1.90531H13.6734C13.5505 1.06617 12.8828 0.300049 11.9105 0.300049H9.43433C8.46202 0.300049 7.79435 1.06617 7.67145 1.90531H7.48292C7.36002 1.06617 6.69235 0.300049 5.72004 0.300049H3.55338ZM26.145 3.30531V6.53689H25.5296H24.8296V7.23689V24.7632V25.4632H25.5296H26.2998V28.6948H25.5296H24.8296V29.3948V29.8158C24.8296 30.1389 24.6049 30.3001 24.4462 30.3001H21.97C21.8113 30.3001 21.5867 30.1389 21.5867 29.8158V29.3948V28.6948H20.8867H19.3391H18.6391V29.3948V29.8158C18.6391 30.1389 18.4145 30.3001 18.2558 30.3001H15.7796C15.6209 30.3001 15.3962 30.1389 15.3962 29.8158V29.3948V28.6948H14.6962H13.1486H12.4486V29.3948V29.8158C12.4486 30.1389 12.224 30.3001 12.0653 30.3001H9.74385C9.58514 30.3001 9.36052 30.1389 9.36052 29.8158V29.3948V28.6948H8.66052H7.1129H6.4129V29.3948V29.8158C6.4129 30.1389 6.18828 30.3001 6.02957 30.3001H3.55338C3.39466 30.3001 3.17004 30.1389 3.17004 29.8158V29.3948V28.6948H2.47004H1.6998V25.4632H2.47004H3.17004V24.7632V7.23689V6.53689H2.47004H1.6998V3.30531H2.47004H3.17004V2.60531V2.18426C3.17004 1.86118 3.39466 1.70005 3.55338 1.70005H5.72004C5.87876 1.70005 6.10338 1.86118 6.10338 2.18426V2.60531V3.30531H6.80338H8.351H9.05099V2.60531V2.18426C9.05099 1.86118 9.27561 1.70005 9.43433 1.70005H11.9105C12.0692 1.70005 12.2939 1.86118 12.2939 2.18426V2.60531V3.30531H12.9939H14.5415H15.2415V2.60531V2.18426C15.2415 1.86118 15.4661 1.70005 15.6248 1.70005H18.101C18.2597 1.70005 18.4843 1.86118 18.4843 2.18426V2.60531V3.30531H19.1843H20.7319H21.4319V2.60531V2.18426C21.4319 1.86118 21.6566 1.70005 21.8153 1.70005H24.2915C24.4502 1.70005 24.6748 1.86118 24.6748 2.18426V2.60531V3.30531H25.3748H26.145ZM7.2998 7.00005V25H8.6998V7.00005H7.2998ZM13.2998 25V7.00005H14.6998V25H13.2998ZM19.2998 7.00005V25H20.6998V7.00005H19.2998Z"/>
</g>
<defs>
<clipPath id="clip0_90_819">
<rect width="28" height="32"/>
</clipPath>
</defs>
</svg>
