<svg width="30" height="33" viewBox="0 0 30 33" xmlns="http://www.w3.org/2000/svg">
<path fill-rule="evenodd" clip-rule="evenodd" d="M18.4998 1.70005C16.3163 1.70005 14.6998 3.26395 14.6998 5.11364V13.3H15.6363V5.11364C15.6363 3.57857 16.9439 2.35684 18.5863 2.35684C19.8788 2.35684 21.1072 3.15957 21.4452 4.41364H22.2211C21.8726 2.88588 20.4011 1.70005 18.4998 1.70005ZM13.2998 5.11364V13.3H11.6998V11.3192C11.6998 11.027 11.5788 10.7491 11.3504 10.5547C11.1321 10.3689 10.8658 10.3 10.6248 10.3H8.3748C8.13383 10.3 7.86755 10.3689 7.64925 10.5547C7.42084 10.7491 7.2998 11.027 7.2998 11.3192V13.3H0.999805H0.299805V14V17C0.299805 22.8634 4.57134 27.7 10.0321 27.7H12.2998V30.6843C12.2998 31.0572 12.3692 31.4078 12.5392 31.7147C12.7129 32.0283 12.965 32.2482 13.2492 32.3954C13.7742 32.6674 14.4337 32.7001 14.9998 32.7001C15.5116 32.7001 16.1724 32.6887 16.7041 32.4339C16.9951 32.2945 17.2606 32.078 17.4451 31.7563C17.6255 31.4418 17.6998 31.0773 17.6998 30.6843V27.7H19.9675C25.4283 27.7 29.6998 22.8634 29.6998 17V14V13.3H28.9998H22.6998V11.3192C22.6998 11.027 22.5788 10.7491 22.3504 10.5547C22.1321 10.3689 21.8658 10.3 21.6248 10.3H19.3748C19.1338 10.3 18.8676 10.3689 18.6492 10.5547C18.4208 10.7491 18.2998 11.027 18.2998 11.3192V13.3H17.0363V5.11364C17.0363 4.43369 17.6326 3.75684 18.5863 3.75684C19.4901 3.75684 20.1363 4.38804 20.1363 5.11364V5.81364H20.8363H22.9998H23.6998V5.11364C23.6998 2.3751 21.3355 0.300049 18.4998 0.300049C15.6641 0.300049 13.2998 2.37509 13.2998 5.11364ZM19.6998 13.3H21.2998V11.7H19.6998V13.3ZM10.2998 11.7V13.3H8.6998V11.7H10.2998ZM16.2998 27.7H13.6998V30.6843C13.6998 30.8869 13.7375 30.9887 13.7639 31.0364C13.7867 31.0775 13.8203 31.1146 13.8932 31.1524C14.0826 31.2504 14.4231 31.3 14.9998 31.3C15.5594 31.3 15.8986 31.2675 16.0991 31.1714C16.1741 31.1355 16.2078 31.0997 16.2308 31.0596C16.258 31.0122 16.2998 30.9052 16.2998 30.6843V27.7ZM1.6998 14.7V17C1.6998 22.2276 5.47519 26.3 10.0321 26.3H19.9675C24.5244 26.3 28.2998 22.2276 28.2998 17V14.7H1.6998Z"/>
</svg>
