<svg width="22" height="23" viewBox="0 0 22 23" xmlns="http://www.w3.org/2000/svg">
<path fill-rule="evenodd" clip-rule="evenodd" d="M3.71245 4.27095C6.33202 1.65139 10.658 1.6433 13.3457 4.27351C16.0267 6.95719 16.0259 11.219 13.3432 13.9017C10.6597 16.5852 6.39598 16.5852 3.71245 13.9017C1.02892 11.2182 1.02892 6.95448 3.71245 4.27095ZM14.328 3.27593C11.1018 0.11556 5.8952 0.108302 2.7225 3.281C-0.507761 6.51127 -0.507761 11.6614 2.7225 14.8916C5.77588 17.945 10.5446 18.1122 13.7859 15.3932L20.3447 21.9521L20.4654 22.0727L21.4553 21.0828L21.3346 20.9621L14.7807 14.4082C17.5558 11.166 17.4066 6.35448 14.3331 3.281L14.3332 3.28098L14.328 3.27593Z"/>
</svg>
