<svg width="26" height="23" viewBox="0 0 26 23" xmlns="http://www.w3.org/2000/svg">
<path d="M23.7276 0.013617C23.3029 -0.0314274 22.8413 0.0349013 22.3774 0.218273C21.8024 0.444453 12.7919 4.23477 4.39262 7.77059L1.61728 8.93862C0.542609 9.37437 0 10.083 0 11.0376C0 11.7059 0.282845 12.6124 1.63226 13.1466L6.31689 15.0234C6.72197 16.2386 7.66283 19.0603 7.89923 19.8104C8.03979 20.2551 8.39484 21.3753 9.29189 21.6373C9.4759 21.6999 9.66792 21.7321 9.86343 21.7321C10.4295 21.7321 10.8371 21.4687 11.0365 21.3153L14.014 18.7971L17.6304 22.1414C17.7697 22.2833 18.5069 23 19.4972 23C20.7329 23 21.6703 21.9713 21.8658 20.9759C21.9718 20.4303 25.4597 2.92117 25.4597 2.92373C25.7728 1.51937 25.2099 0.790851 24.8483 0.480333C24.5384 0.215178 24.1524 0.0586613 23.7276 0.013617ZM22.8816 2.77398C22.3998 5.18912 19.7736 18.3719 19.375 20.2721L14.0888 15.3828L10.5024 18.4202L11.4957 14.5342C11.4957 14.5342 18.3482 7.59786 18.761 7.19405C19.0932 6.87076 19.1628 6.75743 19.1628 6.64498C19.1628 6.49547 19.0859 6.38791 18.9082 6.38791C18.7485 6.38791 18.5316 6.54097 18.4166 6.61253C16.9555 7.52341 10.7342 11.0677 7.67211 12.8096L3.22957 11.0351L5.38595 10.1291C10.8794 7.81621 20.6632 3.69659 22.8816 2.77398Z"/>
</svg>
