<svg width="30" height="30" viewBox="0 0 30 30" xmlns="http://www.w3.org/2000/svg">
<path fill-rule="evenodd" clip-rule="evenodd" d="M0.999805 0.300049H0.299805V1.00005V29V29.7H0.999805H28.9998H29.6998V29V1.00005V0.300049H28.9998H0.999805ZM1.6998 5.24322V1.70005H5.24375C4.94648 3.53343 3.4999 4.94811 1.6998 5.24322ZM1.6998 6.65729V23.3421C4.31954 23.6596 6.342 25.7372 6.65704 28.3H23.3419C23.6593 25.6803 25.737 23.6579 28.2998 23.3428V6.65799C25.6801 6.34051 23.6576 4.26288 23.3426 1.70005H6.65775C6.34026 4.31978 4.26263 6.34225 1.6998 6.65729ZM28.2998 24.7569C26.4997 25.052 25.0531 26.4667 24.7559 28.3H28.2998V24.7569ZM1.6998 28.3V24.7561C3.53319 25.0534 4.94786 26.5 5.24297 28.3H1.6998ZM28.2998 5.244C26.4664 4.94673 25.0517 3.50014 24.7566 1.70005H28.2998V5.244ZM14.9601 3.30005C12.6736 3.30005 10.7256 4.70596 9.81201 6.62379H7.33554H6.63554V7.32379V9.85139C4.69713 10.7051 3.2998 12.6618 3.2998 15C3.2998 17.2821 4.71277 19.223 6.63554 20.1326V22.6763V23.3763H7.33554H9.87524C10.7327 25.3098 12.6967 26.7001 15.0395 26.7001C17.3261 26.7001 19.274 25.2941 20.1876 23.3763H22.7435H23.4435V22.6763V20.1249C25.3003 19.2093 26.6998 17.2636 26.6998 14.9209C26.6998 12.6388 25.2868 10.698 23.3641 9.7884V7.32379V6.62379H22.6641H20.1244C19.2669 4.69026 17.3029 3.30005 14.9601 3.30005ZM10.9293 7.57035C11.5514 5.91733 13.1346 4.70005 14.9601 4.70005C16.876 4.70005 18.4401 5.9255 18.9822 7.54587L19.1421 8.02379H19.646H21.9641V10.2518V10.7376L22.4191 10.9076C24.0806 11.5284 25.2998 13.1062 25.2998 14.9209C25.2998 16.8258 24.0687 18.4011 22.4892 19.0169L22.0435 19.1907V19.6691V21.9763H19.7254H19.2409L19.0703 22.4297C18.4482 24.0828 16.8651 25.3001 15.0395 25.3001C13.1236 25.3001 11.5595 24.0746 11.0174 22.4542L10.8576 21.9763H10.3536H8.03554V19.6691V19.1834L7.58056 19.0134C5.91896 18.3925 4.6998 16.8148 4.6998 15C4.6998 13.0954 5.92709 11.5364 7.55619 10.9953L8.03554 10.8361V10.331V8.02379H10.2742H10.7587L10.9293 7.57035ZM10.7655 11.1599C11.0106 11.6955 11.4831 12.3676 12.1395 13.0241C12.693 13.5776 13.2577 14.0003 13.7423 14.2662C13.8798 14.2163 14.018 14.1749 14.1553 14.1448C14.1857 14.0073 14.2272 13.8688 14.2774 13.7311C14.0115 13.2466 13.5888 12.6818 13.0353 12.1283C12.3788 11.4719 11.7066 10.9994 11.1711 10.7543C10.9078 10.6338 10.7108 10.5837 10.5849 10.5737C10.5948 10.6996 10.645 10.8966 10.7655 11.1599ZM15.8124 16.341C15.8626 16.2033 15.9042 16.0649 15.9345 15.9274C16.0718 15.8972 16.2101 15.8559 16.3476 15.8059C16.8321 16.0718 17.3968 16.4945 17.9503 17.048C18.6068 17.7045 19.0793 18.3766 19.3244 18.9122C19.4449 19.1755 19.495 19.3725 19.5049 19.4984C19.379 19.4884 19.1821 19.4383 18.9188 19.3178C18.3832 19.0727 17.711 18.6002 17.0546 17.9438C16.501 17.3903 16.0783 16.8256 15.8124 16.341ZM15.0435 17.7377C15.3314 18.1397 15.6762 18.5453 16.0646 18.9337C16.8076 19.6767 17.6134 20.2601 18.3362 20.5908C18.695 20.755 19.0689 20.8734 19.4255 20.8962C19.7806 20.919 20.2072 20.8489 20.5313 20.5248C20.8554 20.2007 20.9255 19.7741 20.9028 19.419C20.88 19.0623 20.7616 18.6885 20.5974 18.3297C20.2666 17.6069 19.6832 16.8011 18.9403 16.0581C18.5521 15.6699 18.1468 15.3253 17.7452 15.0376C18.1473 14.7496 18.5531 14.4046 18.9417 14.016C19.6847 13.273 20.2681 12.4672 20.5988 11.7444C20.763 11.3856 20.8814 11.0117 20.9042 10.6551C20.927 10.3 20.8569 9.87342 20.5328 9.54931C20.2087 9.2252 19.7821 9.15512 19.427 9.17784C19.0703 9.20066 18.6965 9.31904 18.3377 9.48324C17.6149 9.81399 16.8091 10.3974 16.0661 11.1404C15.6783 11.5282 15.334 11.9331 15.0464 12.3344C14.7585 11.9324 14.4136 11.5268 14.0252 11.1384C13.2822 10.3954 12.4764 9.81202 11.7536 9.48127C11.3948 9.31707 11.021 9.19869 10.6643 9.17587C10.3092 9.15315 9.88263 9.22323 9.55852 9.54734C9.23442 9.87144 9.16433 10.298 9.18706 10.6531C9.20988 11.0098 9.32825 11.3836 9.49245 11.7424C9.82321 12.4652 10.4066 13.271 11.1496 14.014C11.5377 14.4022 11.943 14.7468 12.3447 15.0346C11.9426 15.3225 11.5367 15.6675 11.1481 16.0561C10.4051 16.7991 9.82174 17.605 9.49099 18.3277C9.32679 18.6865 9.20841 19.0604 9.18559 19.417C9.16287 19.7721 9.23295 20.1987 9.55706 20.5228C9.88116 20.8469 10.3077 20.917 10.6629 20.8943C11.0195 20.8715 11.3934 20.7531 11.7522 20.5889C12.4749 20.2581 13.2808 19.6748 14.0238 18.9318C14.4116 18.544 14.7559 18.139 15.0435 17.7377ZM13.742 15.8033C13.8787 15.8531 14.0162 15.8943 14.1528 15.9245C14.1831 16.0628 14.2247 16.2021 14.2751 16.3406C14.0092 16.8248 13.5867 17.3889 13.0338 17.9418C12.3774 18.5983 11.7052 19.0708 11.1696 19.3159C10.9063 19.4364 10.7094 19.4865 10.5834 19.4965C10.5934 19.3705 10.6435 19.1736 10.764 18.9103C11.0091 18.3747 11.4816 17.7025 12.1381 17.0461C12.692 16.4921 13.2572 16.0692 13.742 15.8033ZM17.9518 13.0261C17.3978 13.58 16.8327 14.003 16.3479 14.2688C16.2111 14.219 16.0736 14.1778 15.937 14.1476C15.9068 14.0093 15.8651 13.87 15.8147 13.7315C16.0807 13.2473 16.5031 12.6832 17.056 12.1303C17.7125 11.4739 18.3847 11.0013 18.9202 10.7563C19.1835 10.6358 19.3805 10.5856 19.5064 10.5757C19.4965 10.7016 19.4463 10.8985 19.3258 11.1619C19.0807 11.6974 18.6082 12.3696 17.9518 13.0261ZM10.5872 10.479C10.5872 10.479 10.587 10.4804 10.5861 10.4829C10.5867 10.4801 10.5871 10.4789 10.5872 10.479ZM10.4941 10.5749C10.4916 10.5758 10.4902 10.5761 10.4901 10.576C10.4901 10.5759 10.4904 10.5758 10.4912 10.5756L10.4941 10.5749ZM19.5027 19.5931C19.5026 19.5931 19.5029 19.5917 19.5037 19.5892C19.5032 19.592 19.5027 19.5932 19.5027 19.5931ZM19.5957 19.4972C19.5982 19.4963 19.5996 19.496 19.5997 19.4961C19.5998 19.4962 19.5985 19.4966 19.5957 19.4972ZM19.6012 10.578C19.6011 10.578 19.5997 10.5778 19.5972 10.5769C19.6 10.5774 19.6012 10.5779 19.6012 10.578ZM19.5052 10.4849C19.5043 10.4824 19.504 10.481 19.5041 10.4809C19.5042 10.4808 19.5046 10.4821 19.5052 10.4849ZM10.5852 19.5896C10.5854 19.5907 10.5857 19.5913 10.5857 19.5912C10.5858 19.5911 10.5855 19.5898 10.5846 19.5873L10.5852 19.5896ZM10.4926 19.4953C10.4898 19.4947 10.4886 19.4943 10.4887 19.4942C10.4887 19.4941 10.4901 19.4944 10.4926 19.4953Z"/>
</svg>
