<svg width="33" height="21" viewBox="0 0 33 21" xmlns="http://www.w3.org/2000/svg">
<path d="M2.58838 0C0.910567 0 -0.367022 1.64982 0.0956869 3.27193C1.30043 7.50023 3.08636 11.6407 5.75212 14.8962C8.41788 18.1517 12.0232 20.5114 16.6337 20.9795C18.1683 21.1352 19.4919 19.8842 19.4919 18.367V15.3377C19.4919 15.1487 19.621 15.0144 19.7682 15.0102C19.7955 15.0096 19.8173 15.0088 19.8311 15.0088C20.3605 15.0088 21.4485 15.6721 22.4042 16.7032C23.3598 17.7343 24.2051 19.0108 24.6118 19.7178V19.7193C25.0719 20.5179 25.9294 21 26.8413 21H30.489C32.3056 21.0013 33.5213 18.9492 32.6322 17.3596C31.2364 14.8631 28.4517 12.3938 27.0591 11.1623C29.6106 8.3604 31.3022 5.30694 32.0518 3.28216C32.6175 1.75237 31.4511 0.0307018 29.8062 0.0307018H27.2024C26.0706 0.0307018 25.0153 0.582178 24.584 1.46491C22.5575 5.61752 20.7512 7.14272 19.4787 8.24123V2.60673C19.4787 1.20103 18.3123 0.0420996 16.9115 0.0394737L12.3515 0.0321637C10.8995 0.0303673 9.99906 1.82378 10.8691 2.98684L11.7492 4.1652L11.7507 4.16813C11.9015 4.36761 11.9817 4.60663 11.9817 4.85234V4.8538L11.9992 9.55263C10.1855 7.63987 8.21511 3.58814 7.62054 1.7807V1.77924C7.2733 0.723434 6.27433 0.0105481 5.17171 0.00730994H5.17025L2.58984 0H2.58838ZM2.58838 2.24561L5.16586 2.25292C5.32429 2.2533 5.44081 2.33879 5.4875 2.48099C6.22577 4.72604 8.16551 9.00358 10.6249 11.3991C11.2636 12.0213 12.201 12.1475 12.9276 11.8523C13.6542 11.5572 14.2463 10.7924 14.2463 9.89474V9.89327L14.2273 4.85234C14.2273 4.11819 13.9869 3.40421 13.546 2.81871L13.5445 2.81579L13.1425 2.27924L16.9071 2.28509C17.1036 2.28547 17.2331 2.41355 17.2331 2.60673V8.29825C17.2331 10.1207 19.5284 11.1679 20.9086 9.97661H20.91C22.1751 8.88383 24.4137 6.93349 26.6015 2.45029C26.6523 2.34645 26.6081 2.27632 27.2024 2.27632H29.8062C29.9578 2.27632 30.0022 2.34851 29.9451 2.50292C29.3082 4.22324 27.6833 7.22323 25.274 9.81871C24.5315 10.6188 24.5617 11.9408 25.4012 12.6842C26.7173 13.8483 29.5895 16.5191 30.6717 18.4547C30.7707 18.6317 30.6963 18.7545 30.4904 18.7544H26.8413C26.7157 18.7544 26.6125 18.6931 26.5577 18.598C26.0714 17.7525 25.1795 16.3936 24.0518 15.1769C22.9241 13.9602 21.5816 12.7632 19.8311 12.7632C19.7815 12.7632 19.7409 12.7638 19.7097 12.7646H19.7068H19.7053C18.3121 12.8039 17.2463 13.9862 17.2463 15.3377V18.367C17.2463 18.5998 17.0668 18.7666 16.8603 18.7456C12.8753 18.341 9.87172 16.3835 7.48896 13.4737C5.1062 10.5638 3.40445 6.6905 2.25504 2.65643C2.19078 2.43115 2.32897 2.24561 2.58838 2.24561Z"/>
</svg>
