<svg width="28" height="28" viewBox="0 0 28 28" xmlns="http://www.w3.org/2000/svg">
<path d="M5.19531 0C2.34162 0 0 2.34162 0 5.19531V22.8047C0 25.6584 2.34162 28 5.19531 28H22.8047C25.6584 28 28 25.6584 28 22.8047V5.19531C28 2.34162 25.6584 0 22.8047 0H5.19531ZM5.19531 2.54545H22.8047C24.2812 2.54545 25.4545 3.71875 25.4545 5.19531V22.8047C25.4545 24.2812 24.2812 25.4545 22.8047 25.4545H5.19531C3.71875 25.4545 2.54545 24.2812 2.54545 22.8047V5.19531C2.54545 3.71875 3.71875 2.54545 5.19531 2.54545ZM13.642 9.20241C12.7074 9.19247 11.9119 9.20241 11.4645 9.42116C11.1662 9.56534 10.9375 9.89347 11.0767 9.90838C11.2507 9.93324 11.6435 10.0178 11.8523 10.3011C12.1207 10.6641 12.1108 11.4844 12.1108 11.4844C12.1108 11.4844 12.2599 13.7415 11.7479 14.0249C11.3949 14.2188 10.9126 13.826 9.86861 12.0312C9.33665 11.1065 8.93395 10.0874 8.93395 10.0874C8.93395 10.0874 8.85938 9.89844 8.72017 9.79901C8.55114 9.67472 8.31747 9.63494 8.31747 9.63494L5.8267 9.64986C5.8267 9.64986 5.45384 9.66477 5.3196 9.82386C5.19531 9.97301 5.30966 10.2663 5.30966 10.2663C5.30966 10.2663 7.25852 14.8253 9.46591 17.1222C11.4893 19.2301 13.7862 19.0909 13.7862 19.0909H14.8303C14.8303 19.0909 15.1435 19.0561 15.3026 18.8871C15.4517 18.728 15.4467 18.4297 15.4467 18.4297C15.4467 18.4297 15.4268 17.0327 16.0732 16.8239C16.7145 16.625 17.5298 18.1761 18.3999 18.7727C19.0611 19.2251 19.5632 19.1257 19.5632 19.1257L21.8899 19.0909C21.8899 19.0909 23.103 19.0163 22.5263 18.0568C22.4815 17.9822 22.1932 17.3509 20.8011 16.0582C19.3395 14.706 19.5334 14.9247 21.2933 12.5831C22.3622 11.1562 22.7898 10.2862 22.6555 9.90838C22.5263 9.5554 21.7408 9.64986 21.7408 9.64986L19.1207 9.66477C19.1207 9.66477 18.9268 9.63991 18.7827 9.72443C18.6435 9.80895 18.554 10.0078 18.554 10.0078C18.554 10.0078 18.1364 11.1115 17.5845 12.0511C16.4212 14.0298 15.9489 14.1392 15.7599 14.0149C15.3175 13.7266 15.4268 12.8615 15.4268 12.25C15.4268 10.326 15.7202 9.53054 14.8601 9.32173C14.5767 9.25213 14.3679 9.20739 13.642 9.20241Z"/>
</svg>
